<svg width="55" height="56" viewBox="0 0 55 56" fill="none" xmlns="http://www.w3.org/2000/svg">
<path d="M27.2977 0L32.2887 6.13433L39.4473 2.772L41.2813 10.465L49.189 10.542L47.5043 18.27L54.5953 21.77L49.7233 28L54.5953 34.23L47.5043 37.73L49.189 45.458L41.2813 45.535L39.4473 53.228L32.2887 49.8657L27.2977 56L22.3067 49.8657L15.148 53.228L13.314 45.535L5.40633 45.458L7.091 37.73L0 34.23L4.872 28L0 21.77L7.091 18.27L5.40633 10.542L13.314 10.465L15.148 2.772L22.3067 6.13433L27.2977 0Z" fill="black"/>
</svg>
